# xmcd
#
# Track frame offsets: 
#        150
#        16457
#        23976
#        35608
#        44207
#        62475
#        76810
#        87854
#
# Disc length: 1311 seconds
#
# Revision: 0
# Processed by: cddbd v1.5.2PL0 Copyright (c) Steve Scherf et al.
# Submitted via: ExactAudioCopy v0.99pb4
#
DISCID=5f051d08
DTITLE=Dixie Whiskey - Honky Dory
DYEAR=2007
DGENRE=Country
TTITLE0=Southern Belle
TTITLE1=Ramblin' Blues
TTITLE2=Steel Wheels
TTITLE3=Landlady Dead
TTITLE4=End Of A Cigarette
TTITLE5=Mississippi Boogie
TTITLE6=Birmingham
TTITLE7=You Knew I Was A Snake
EXTD=
EXTT0=
EXTT1=
EXTT2=
EXTT3=
EXTT4=
EXTT5=
EXTT6=
EXTT7=
PLAYORDER=
